<?xml version="1.0" encoding="UTF-8" standalone="no"?>
<!DOCTYPE svg PUBLIC "-//W3C//DTD SVG 1.1//EN"
 "http://www.w3.org/Graphics/SVG/1.1/DTD/svg11.dtd">
<!-- Generated by graphviz version 7.1.0 (20230121.1956)
 -->
<!-- Pages: 1 -->
<svg width="163pt" height="188pt"
 viewBox="0.00 0.00 162.54 188.00" xmlns="http://www.w3.org/2000/svg" xmlns:xlink="http://www.w3.org/1999/xlink">
<g id="graph0" class="graph" transform="scale(1 1) rotate(0) translate(4 184)">
<polygon fill="white" stroke="none" points="-4,4 -4,-184 158.54,-184 158.54,4 -4,4"/>
<!-- foo.py -->
<g id="node1" class="node">
<title>foo.py</title>
<ellipse fill="none" stroke="black" cx="77.1" cy="-162" rx="33.6" ry="18"/>
<text text-anchor="middle" x="77.1" y="-158.3" font-family="Times,serif" font-size="14.00">foo.py</text>
</g>
<!-- bar.py -->
<g id="node2" class="node">
<title>bar.py</title>
<ellipse fill="none" stroke="black" cx="35.1" cy="-90" rx="32.49" ry="18"/>
<text text-anchor="middle" x="35.1" y="-86.3" font-family="Times,serif" font-size="14.00">bar.py</text>
</g>
<!-- foo.py&#45;&gt;bar.py -->
<g id="edge1" class="edge">
<title>foo.py&#45;&gt;bar.py</title>
<path fill="none" stroke="black" d="M67.14,-144.41C62.28,-136.3 56.31,-126.35 50.85,-117.25"/>
<polygon fill="black" stroke="black" points="53.9,-115.54 45.76,-108.77 47.9,-119.14 53.9,-115.54"/>
</g>
<!-- baz.py -->
<g id="node3" class="node">
<title>baz.py</title>
<ellipse fill="none" stroke="black" cx="120.1" cy="-90" rx="34.39" ry="18"/>
<text text-anchor="middle" x="120.1" y="-86.3" font-family="Times,serif" font-size="14.00">baz.py</text>
</g>
<!-- foo.py&#45;&gt;baz.py -->
<g id="edge2" class="edge">
<title>foo.py&#45;&gt;baz.py</title>
<path fill="none" stroke="black" d="M87.29,-144.41C92.27,-136.3 98.38,-126.35 103.97,-117.25"/>
<polygon fill="black" stroke="black" points="106.94,-119.11 109.19,-108.76 100.97,-115.45 106.94,-119.11"/>
</g>
<!-- qux.py -->
<g id="node4" class="node">
<title>qux.py</title>
<ellipse fill="none" stroke="black" cx="35.1" cy="-18" rx="35.19" ry="18"/>
<text text-anchor="middle" x="35.1" y="-14.3" font-family="Times,serif" font-size="14.00">qux.py</text>
</g>
<!-- bar.py&#45;&gt;qux.py -->
<g id="edge3" class="edge">
<title>bar.py&#45;&gt;qux.py</title>
<path fill="none" stroke="black" d="M35.1,-71.7C35.1,-64.41 35.1,-55.73 35.1,-47.54"/>
<polygon fill="black" stroke="black" points="38.6,-47.62 35.1,-37.62 31.6,-47.62 38.6,-47.62"/>
</g>
</g>
</svg>
