<?xml version="1.0" encoding="UTF-8" standalone="no"?>
<!DOCTYPE svg PUBLIC "-//W3C//DTD SVG 1.1//EN"
 "http://www.w3.org/Graphics/SVG/1.1/DTD/svg11.dtd">
<!-- Generated by graphviz version 7.1.0 (20230121.1956)
 -->
<!-- Pages: 1 -->
<svg width="518pt" height="188pt"
 viewBox="0.00 0.00 518.33 188.00" xmlns="http://www.w3.org/2000/svg" xmlns:xlink="http://www.w3.org/1999/xlink">
<g id="graph0" class="graph" transform="scale(1 1) rotate(0) translate(4 184)">
<polygon fill="white" stroke="none" points="-4,4 -4,-184 514.33,-184 514.33,4 -4,4"/>
<!-- python_import_graph/__main__.py -->
<g id="node1" class="node">
<title>python_import_graph/__main__.py</title>
<ellipse fill="none" stroke="black" cx="254.19" cy="-162" rx="137.28" ry="18"/>
<text text-anchor="middle" x="254.19" y="-158.3" font-family="Times,serif" font-size="14.00">python_import_graph/__main__.py</text>
</g>
<!-- python_import_graph/parser.py -->
<g id="node2" class="node">
<title>python_import_graph/parser.py</title>
<ellipse fill="none" stroke="black" cx="122.19" cy="-90" rx="122.38" ry="18"/>
<text text-anchor="middle" x="122.19" y="-86.3" font-family="Times,serif" font-size="14.00">python_import_graph/parser.py</text>
</g>
<!-- python_import_graph/__main__.py&#45;&gt;python_import_graph/parser.py -->
<g id="edge1" class="edge">
<title>python_import_graph/__main__.py&#45;&gt;python_import_graph/parser.py</title>
<path fill="none" stroke="black" d="M222.24,-144.05C204.72,-134.77 182.81,-123.15 163.96,-113.15"/>
<polygon fill="black" stroke="black" points="165.66,-110.09 155.19,-108.5 162.38,-116.28 165.66,-110.09"/>
</g>
<!-- python_import_graph/printer.py -->
<g id="node3" class="node">
<title>python_import_graph/printer.py</title>
<ellipse fill="none" stroke="black" cx="386.19" cy="-90" rx="124.28" ry="18"/>
<text text-anchor="middle" x="386.19" y="-86.3" font-family="Times,serif" font-size="14.00">python_import_graph/printer.py</text>
</g>
<!-- python_import_graph/__main__.py&#45;&gt;python_import_graph/printer.py -->
<g id="edge2" class="edge">
<title>python_import_graph/__main__.py&#45;&gt;python_import_graph/printer.py</title>
<path fill="none" stroke="black" d="M286.14,-144.05C303.65,-134.77 325.57,-123.15 344.42,-113.15"/>
<polygon fill="black" stroke="black" points="346,-116.28 353.19,-108.5 342.72,-110.09 346,-116.28"/>
</g>
<!-- python_import_graph/finder.py -->
<g id="node4" class="node">
<title>python_import_graph/finder.py</title>
<ellipse fill="none" stroke="black" cx="122.19" cy="-18" rx="122.38" ry="18"/>
<text text-anchor="middle" x="122.19" y="-14.3" font-family="Times,serif" font-size="14.00">python_import_graph/finder.py</text>
</g>
<!-- python_import_graph/parser.py&#45;&gt;python_import_graph/finder.py -->
<g id="edge3" class="edge">
<title>python_import_graph/parser.py&#45;&gt;python_import_graph/finder.py</title>
<path fill="none" stroke="black" d="M122.19,-71.7C122.19,-64.41 122.19,-55.73 122.19,-47.54"/>
<polygon fill="black" stroke="black" points="125.69,-47.62 122.19,-37.62 118.69,-47.62 125.69,-47.62"/>
</g>
</g>
</svg>
